<?xml version="1.0" standalone="no"?>
<!DOCTYPE svg PUBLIC "-//W3C//DTD SVG 20010904//EN"
 "http://www.w3.org/TR/2001/REC-SVG-20010904/DTD/svg10.dtd">
<svg version="1.0" xmlns="http://www.w3.org/2000/svg"
 width="256.000000pt" height="256.000000pt" viewBox="0 0 256.000000 256.000000"
 preserveAspectRatio="xMidYMid meet">

<g transform="translate(0.000000,256.000000) scale(0.100000,-0.100000)"
fill="#000000" stroke="none">
<path d="M1045 2066 c-48 -18 -86 -60 -102 -115 -18 -57 -19 -1241 -1 -1259
19 -19 824 -17 858 3 14 8 32 17 40 21 8 4 29 21 45 38 l30 31 3 301 3 302 36
7 c45 8 93 57 104 105 5 19 9 61 9 92 0 54 -2 59 -49 110 l-49 53 -311 3 -311
3 0 89 c0 49 -4 92 -10 95 -5 3 -10 14 -10 24 0 9 -20 37 -45 61 -43 43 -45
43 -122 47 -52 2 -91 -2 -118 -11z"/>
<path d="M497 1753 c-4 -3 -7 -239 -7 -524 0 -457 2 -519 16 -533 12 -13 41
-16 153 -16 121 0 140 2 154 18 15 17 17 68 17 528 0 383 -3 513 -12 522 -13
13 -309 18 -321 5z"/>
</g>
</svg>
